<svg version="1.1" xmlns="http://www.w3.org/2000/svg" xmlns:xlink="http://www.w3.org/1999/xlink" width="48px" height="48px" viewBox="0,0,256,256"><g fill="#ffffff" fill-rule="nonzero" stroke="none" stroke-width="1" stroke-linecap="butt" stroke-linejoin="miter" stroke-miterlimit="10" stroke-dasharray="" stroke-dashoffset="0" font-family="none" font-weight="none" font-size="none" text-anchor="none" style="mix-blend-mode: normal"><g transform="scale(5.33333,5.33333)"><g id="_03-profits"><path d="M31,48h-26c-2.76005,-0.00331 -4.99669,-2.23995 -5,-5v-34c0.00006,-0.26519 0.10545,-0.51951 0.293,-0.707l8,-8c0.18749,-0.18755 0.44181,-0.29294 0.707,-0.293h22c2.76005,0.00331 4.99669,2.23995 5,5v8h-2v-8c0,-1.65685 -1.34315,-3 -3,-3h-21.586l-7.414,7.414v33.586c0,1.65685 1.34315,3 3,3h26c1.65685,0 3,-1.34315 3,-3h2c-0.00331,2.76005 -2.23995,4.99669 -5,5z"></path><path d="M7,10h-2v-2h2c0.55228,0 1,-0.44772 1,-1v-6h2v6c0,1.65685 -1.34315,3 -3,3z"></path><path d="M47,41h-30c-0.55228,0 -1,-0.44772 -1,-1v-18c0,-0.55228 0.44772,-1 1,-1h7.586l6.707,-6.707c0.3905,-0.39038 1.0235,-0.39038 1.414,0l2.293,2.293l9.293,-9.293c0.28599,-0.28591 0.71604,-0.37142 1.08965,-0.21668c0.37362,0.15474 0.61726,0.51928 0.61735,0.92368v5h-2v-2.586l-8.293,8.293c-0.3905,0.39038 -1.0235,0.39038 -1.414,0l-2.293,-2.293l-6.293,6.293c-0.18749,0.18755 -0.44181,0.29294 -0.707,0.293h-7v16h28v-16h-17v-2h18c0.55228,0 1,0.44772 1,1v18c0,0.55228 -0.44772,1 -1,1z"></path><path d="M33,32h-2c-1.65685,0 -3,-1.34315 -3,-3c0,-1.65685 1.34315,-3 3,-3h2c1.65685,0 3,1.34315 3,3h-2c0,-0.55228 -0.44772,-1 -1,-1h-2c-0.55228,0 -1,0.44772 -1,1c0,0.55228 0.44772,1 1,1h2z"></path><path d="M33,36h-2c-1.65685,0 -3,-1.34315 -3,-3h2c0,0.55228 0.44772,1 1,1h2c0.55228,0 1,-0.44772 1,-1c0,-0.55228 -0.44772,-1 -1,-1h-2v-2h2c1.65685,0 3,1.34315 3,3c0,1.65685 -1.34315,3 -3,3z"></path><rect x="31" y="25" width="2" height="2"></rect><rect x="31" y="35" width="2" height="2"></rect><path d="M17,28v-2c2.20914,0 4,-1.79086 4,-4h2c-0.00331,3.31234 -2.68766,5.99669 -6,6z"></path><path d="M47,28c-3.31234,-0.00331 -5.99669,-2.68766 -6,-6h2c0,2.20914 1.79086,4 4,4z"></path><path d="M43,40h-2c0.00331,-3.31234 2.68766,-5.99669 6,-6v2c-2.20914,0 -4,1.79086 -4,4z"></path><path d="M23,40h-2c0,-2.20914 -1.79086,-4 -4,-4v-2c3.31234,0.00331 5.99669,2.68766 6,6z"></path><rect x="40" y="7" width="5" height="2"></rect><rect x="5" y="39" width="8" height="2"></rect><rect x="5" y="34" width="8" height="2"></rect><rect x="5" y="29" width="8" height="2"></rect><rect x="5" y="24" width="8" height="2"></rect><rect x="5" y="19" width="8" height="2"></rect><rect x="5" y="14" width="21" height="2"></rect><rect x="17" y="9" width="14" height="2"></rect><rect x="13" y="9" width="2" height="2"></rect></g></g></g></svg>