<svg width="64" height="64" viewBox="0 0 64 64" fill="none" xmlns="http://www.w3.org/2000/svg">
<g clip-path="url(#clip0_96_28)">
<path d="M51.799 46.1421L37.6569 32L51.799 17.8579C53.3603 16.2966 53.3603 13.7623 51.799 12.201C50.2377 10.6397 47.7034 10.6397 46.1421 12.201L32 26.3431L17.8579 12.201C16.2966 10.6397 13.7623 10.6397 12.201 12.201C10.6397 13.7623 10.6397 16.2966 12.201 17.8579L26.3431 32L12.201 46.1421C10.6397 47.7034 10.6397 50.2377 12.201 51.799C13.7623 53.3603 16.2966 53.3603 17.8579 51.799L32 37.6568L46.1421 51.799C47.7034 53.3603 50.2377 53.3603 51.799 51.799C53.3603 50.2377 53.3603 47.7034 51.799 46.1421Z" fill="white"/>
</g>
<defs>
<clipPath id="clip0_96_28">
<rect width="64" height="64" fill="white"/>
</clipPath>
</defs>
</svg>
