<svg width="32" height="32" viewBox="0 0 32 32" fill="none" xmlns="http://www.w3.org/2000/svg">
<g clip-path="url(#clip0_220_49)">
<path d="M31.6201 12.22L16.6201 0.219986C16.4427 0.0779822 16.2223 0.000610352 15.9951 0.000610352C15.7679 0.000610352 15.5474 0.0779822 15.3701 0.219986L0.370081 12.22C0.208261 12.3498 0.0908234 12.5267 0.0340387 12.7263C-0.0227459 12.9258 -0.016066 13.1381 0.053153 13.3336C0.122372 13.5292 0.250703 13.6984 0.420366 13.8178C0.590029 13.9372 0.792624 14.0009 1.00008 14H3.00008V31C3.00008 31.2652 3.10544 31.5196 3.29297 31.7071C3.48051 31.8946 3.73487 32 4.00008 32H28.0001C28.2653 32 28.5197 31.8946 28.7072 31.7071C28.8947 31.5196 29.0001 31.2652 29.0001 31V14H31.0001C31.2067 13.9988 31.4078 13.9336 31.5759 13.8135C31.744 13.6933 31.8707 13.524 31.9387 13.3289C32.0066 13.1338 32.0125 12.9225 31.9554 12.7239C31.8984 12.5253 31.7812 12.3493 31.6201 12.22ZM18.0001 30H14.0001V22H18.0001V30ZM28.0001 12C27.7349 12 27.4805 12.1053 27.293 12.2929C27.1054 12.4804 27.0001 12.7348 27.0001 13V30H20.0001V21C20.0001 20.7348 19.8947 20.4804 19.7072 20.2929C19.5197 20.1053 19.2653 20 19.0001 20H13.0001C12.7349 20 12.4805 20.1053 12.293 20.2929C12.1054 20.4804 12.0001 20.7348 12.0001 21V30H5.00008V14H22.0001V12H3.85008L16.0001 2.27999L28.1501 12H28.0001Z" fill="white"/>
</g>
<defs>
<clipPath id="clip0_220_49">
<rect width="32" height="32" fill="white"/>
</clipPath>
</defs>
</svg>
