<svg version="1.1" xmlns="http://www.w3.org/2000/svg" xmlns:xlink="http://www.w3.org/1999/xlink" width="64" height="64" viewBox="0,0,256,256"><g fill="#ffffff" fill-rule="nonzero" stroke="none" stroke-width="1" stroke-linecap="butt" stroke-linejoin="miter" stroke-miterlimit="10" stroke-dasharray="" stroke-dashoffset="0" font-family="none" font-weight="none" font-size="none" text-anchor="none" style="mix-blend-mode: normal"><g transform="scale(4,4)"><rect x="16.25" y="25.5" width="8.5" height="18" rx="1.5" ry="0"></rect><rect x="27.75" y="18" width="8.5" height="25.5" rx="1.5" ry="0"></rect><rect x="39.25" y="10.5" width="8.5" height="33" rx="1.5" ry="0"></rect><path d="M60,4.5h-56c-1.933,0 -3.5,1.567 -3.5,3.5v38c0,1.933 1.567,3.5 3.5,3.5h20.5v7h-2.25c-0.82843,0 -1.5,0.67157 -1.5,1.5c0,0.82843 0.67157,1.5 1.5,1.5h19.5c0.82843,0 1.5,-0.67157 1.5,-1.5c0,-0.82843 -0.67157,-1.5 -1.5,-1.5h-2.25v-7h20.5c1.933,0 3.5,-1.567 3.5,-3.5v-38c0,-1.933 -1.567,-3.5 -3.5,-3.5zM36.5,56.5h-9v-7h9zM60.5,46c0,0.27614 -0.22386,0.5 -0.5,0.5h-56c-0.27614,0 -0.5,-0.22386 -0.5,-0.5v-38c0,-0.27614 0.22386,-0.5 0.5,-0.5h56c0.27614,0 0.5,0.22386 0.5,0.5z"></path></g></g></svg>