<svg version="1.1" xmlns="http://www.w3.org/2000/svg" xmlns:xlink="http://www.w3.org/1999/xlink" width="64" height="64" viewBox="0,0,256,256"><g fill="#ffffff" fill-rule="nonzero" stroke="none" stroke-width="1" stroke-linecap="butt" stroke-linejoin="miter" stroke-miterlimit="10" stroke-dasharray="" stroke-dashoffset="0" font-family="none" font-weight="none" font-size="none" text-anchor="none" style="mix-blend-mode: normal"><g transform="translate(0,0.00187) scale(4,4)"><path d="M20,48.5c-3.81027,0.00409 -7.44388,-1.60633 -10,-4.432c-2.40894,2.6932 -5.8137,4.28522 -9.425,4.407c0.75917,8.5006 7.87865,15.01757 16.41308,15.02406c8.53443,0.0065 15.66382,-6.49963 16.43592,-14.99906zM17,57.5c-2.48414,-0.00276 -4.49724,-2.01586 -4.5,-4.5c0,-0.82843 0.67157,-1.5 1.5,-1.5c0.82843,0 1.5,0.67157 1.5,1.5c0,0.82843 0.67157,1.5 1.5,1.5c0.82843,0 1.5,-0.67157 1.5,-1.5c0,-0.82843 0.67157,-1.5 1.5,-1.5c0.82843,0 1.5,0.67157 1.5,1.5c-0.00276,2.48414 -2.01586,4.49724 -4.5,4.5z"></path><path d="M8.75,40.8c0.29447,-0.39439 0.7578,-0.62667 1.25,-0.62667c0.4922,0 0.95553,0.23228 1.25,0.62667c1.94256,2.93639 5.22921,4.70179 8.75,4.7h13.424c-0.77165,-8.49148 -7.88882,-14.99478 -16.41529,-14.99945c-8.52647,-0.00467 -15.65075,6.49083 -16.43171,14.98145c3.30811,-0.19163 6.33435,-1.92525 8.173,-4.682z"></path><path d="M63.493,16.87c0.207,-8.285 -6.978,-16.37 -16.493,-16.37c-6.68605,-0.00263 -12.71276,4.02988 -15.26105,10.21126c-2.54829,6.18138 -1.11436,13.28956 3.63105,17.99959c4.74541,4.71002 11.86413,6.09071 18.02626,3.49622c6.16213,-2.59449 10.14942,-8.65122 10.09674,-15.33706zM47,3.5c6.60841,0.01123 12.23865,4.80168 13.308,11.323c-2.06524,-0.77903 -3.83422,-2.18603 -5.058,-4.023c-0.29447,-0.39439 -0.7578,-0.62667 -1.25,-0.62667c-0.4922,0 -0.95553,0.23228 -1.25,0.62667c-1.94256,2.93639 -5.22921,4.70179 -8.75,4.7h-10.412c0.77066,-6.82757 6.54108,-11.99049 13.412,-12zM33.588,18.5h10.412c3.81096,0.00243 7.44455,-1.60979 10,-4.437c1.73021,1.90306 3.96576,3.27505 6.446,3.956c-0.52018,6.94738 -6.2451,12.35586 -13.21081,12.4806c-6.96571,0.12474 -12.8806,-5.0753 -13.64919,-11.9996z"></path><path d="M60.061,32.939c-0.58723,-0.58294 -1.53477,-0.58294 -2.122,0l-3,3c-0.58597,0.58597 -0.58597,1.53603 0,2.122c0.58597,0.58597 1.53603,0.58597 2.122,0l0.439,-0.44v2.879c-0.00331,2.76005 -2.23995,4.99669 -5,5h-15.5c-0.82843,0 -1.5,0.67157 -1.5,1.5c0,0.82843 0.67157,1.5 1.5,1.5h15.5c4.41622,-0.00496 7.99504,-3.58378 8,-8v-2.879l0.439,0.44c0.58597,0.58597 1.53603,0.58597 2.122,0c0.58597,-0.58597 0.58597,-1.53603 0,-2.122z"></path><path d="M27,15.5h-15.5c-4.41622,0.00496 -7.99504,3.58378 -8,8v2.879l-0.439,-0.44c-0.58597,-0.58597 -1.53603,-0.58597 -2.122,0c-0.58597,0.58597 -0.58597,1.53603 0,2.122l3,3c0.58723,0.58294 1.53477,0.58294 2.122,0l3,-3c0.58597,-0.58597 0.58597,-1.53603 0,-2.122c-0.58597,-0.58597 -1.53603,-0.58597 -2.122,0l-0.439,0.44v-2.879c0.00331,-2.76005 2.23995,-4.99669 5,-5h15.5c0.82843,0 1.5,-0.67157 1.5,-1.5c0,-0.82843 -0.67157,-1.5 -1.5,-1.5z"></path><path d="M51.5,23c0,-0.82843 -0.67157,-1.5 -1.5,-1.5c-0.82843,0 -1.5,0.67157 -1.5,1.5c0,0.82843 -0.67157,1.5 -1.5,1.5c-0.82843,0 -1.5,-0.67157 -1.5,-1.5c0,-0.82843 -0.67157,-1.5 -1.5,-1.5c-0.82843,0 -1.5,0.67157 -1.5,1.5c0,2.48528 2.01472,4.5 4.5,4.5c2.48528,0 4.5,-2.01472 4.5,-4.5z"></path></g></g></svg>